<?xml version="1.0" encoding="UTF-8" standalone="no"?>
<svg width="29px" height="28px" viewBox="0 0 29 28" version="1.1" xmlns="http://www.w3.org/2000/svg" xmlns:xlink="http://www.w3.org/1999/xlink" xmlns:sketch="http://www.bohemiancoding.com/sketch/ns">
    <!-- Generator: Sketch 3.0.4 (8053) - http://www.bohemiancoding.com/sketch -->
    <title>GitHub</title>
    <desc>Created with Sketch.</desc>
    <defs></defs>
    <g id="Welcome" stroke="none" stroke-width="1" fill="none" fill-rule="evenodd" sketch:type="MSPage">
        <g id="Desktop-HD" sketch:type="MSArtboardGroup" transform="translate(-743.000000, -629.000000)" fill="#D8D8D8">
            <g id="Group" sketch:type="MSLayerGroup" transform="translate(237.000000, 71.000000)">
                <g transform="translate(349.000000, 558.000000)" id="GitHub" sketch:type="MSShapeGroup">
                    <path d="M171.498665,0 C163.49271,0 157,6.4265887 157,14.3547415 C157,20.6967351 161.154302,26.0764586 166.916204,27.9745626 C167.641671,28.1067425 167.906044,27.6634991 167.906044,27.2828209 C167.906044,26.9426778 167.893582,26.0394483 167.886461,24.841898 C163.853218,25.7089984 163.002241,22.9173581 163.002241,22.9173581 C162.342644,21.2589404 161.39197,20.8174594 161.39197,20.8174594 C160.075447,19.9274478 161.491666,19.9450718 161.491666,19.9450718 C162.947052,20.0464098 163.712576,21.4246059 163.712576,21.4246059 C165.005955,23.6179117 167.106694,22.9843292 167.932748,22.616869 C168.064489,21.689847 168.43924,21.0571457 168.853157,20.6984975 C165.633506,20.3363244 162.248289,19.1044074 162.248289,13.6039595 C162.248289,12.0371866 162.81353,10.7550411 163.74106,9.752236 C163.591516,9.38918176 163.093926,7.92903402 163.883483,5.95338451 C163.883483,5.95338451 165.10031,5.56741909 167.870438,7.42498785 C169.026735,7.10599359 170.267596,6.94737767 171.500445,6.94120927 C172.732404,6.94737767 173.972375,7.10599359 175.130452,7.42498785 C177.8988,5.56741909 179.113846,5.95338451 179.113846,5.95338451 C179.905184,7.92903402 179.407594,9.38918176 179.25894,9.752236 C180.18825,10.7550411 180.749041,12.0371866 180.749041,13.6039595 C180.749041,19.1185066 177.358482,20.3319184 174.12904,20.6870419 C174.648884,21.1302853 175.112649,22.0061977 175.112649,23.3456211 C175.112649,25.2639926 175.094846,26.8122603 175.094846,27.2828209 C175.094846,27.6670239 175.356549,28.1137921 176.091808,27.9736814 C181.849259,26.0711714 186,20.6949727 186,14.3547415 C186,6.4265887 179.50729,0 171.498665,0"></path>
                </g>
            </g>
        </g>
    </g>
</svg>