<?xml version="1.0" encoding="UTF-8" standalone="no"?>
<svg width="29px" height="29px" viewBox="0 0 29 29" version="1.1" xmlns="http://www.w3.org/2000/svg" xmlns:xlink="http://www.w3.org/1999/xlink" xmlns:sketch="http://www.bohemiancoding.com/sketch/ns">
    <!-- Generator: Sketch 3.1 (8751) - http://www.bohemiancoding.com/sketch -->
    <title>LinkedIn</title>
    <desc>Created with Sketch.</desc>
    <defs></defs>
    <g id="Welcome" stroke="none" stroke-width="1" fill="none" fill-rule="evenodd" sketch:type="MSPage">
        <g id="Desktop-HD" sketch:type="MSArtboardGroup" transform="translate(-847.000000, -628.000000)" fill="#D8D8D8">
            <g id="Group" sketch:type="MSLayerGroup" transform="translate(237.000000, 71.000000)">
                <g transform="translate(292.000000, 557.000000)" id="LinkedIn" sketch:type="MSShapeGroup">
                    <path d="M344.853455,0 L320.140503,0 C318.959591,0 318,0.936055556 318,2.08961111 L318,26.9075694 C318,28.0623333 318.959591,29 320.140503,29 L344.853455,29 C346.036381,29 347,28.0625347 347,26.9075694 L347,2.08961111 C347,0.936055556 346.036381,0 344.853455,0 Z M322.299735,10.8719792 L326.601081,10.8719792 L326.601081,24.7118264 L322.299735,24.7118264 L322.299735,10.8719792 Z M324.451314,3.99253472 C325.826359,3.99253472 326.943835,5.11004167 326.943835,6.48572917 C326.943835,7.862625 325.826359,8.98013194 324.451314,8.98013194 C323.072644,8.98013194 321.956779,7.862625 321.956779,6.48572917 C321.95698,5.11024306 323.072845,3.99253472 324.451314,3.99253472 Z M329.299013,10.8719792 L333.424349,10.8719792 L333.424349,12.7630208 L333.481945,12.7630208 C334.05629,11.6749167 335.459126,10.5278056 337.5517,10.5278056 C341.907218,10.5278056 342.711341,13.394375 342.711341,17.1204722 L342.711341,24.711625 L338.413016,24.711625 L338.413016,17.9812083 C338.413016,16.3763403 338.383614,14.3119028 336.177863,14.3119028 C333.939891,14.3119028 333.596331,16.0601597 333.596331,17.8652083 L333.596331,24.711625 L329.298811,24.711625 L329.298811,10.8719792 L329.299013,10.8719792 Z"></path>
                </g>
            </g>
        </g>
    </g>
</svg>