<?xml version="1.0" encoding="UTF-8" standalone="no"?>
<svg width="28px" height="21px" viewBox="0 0 28 21" version="1.1" xmlns="http://www.w3.org/2000/svg" xmlns:xlink="http://www.w3.org/1999/xlink" xmlns:sketch="http://www.bohemiancoding.com/sketch/ns">
    <!-- Generator: Sketch 3.0.4 (8053) - http://www.bohemiancoding.com/sketch -->
    <title>Mail</title>
    <desc>Created with Sketch.</desc>
    <defs></defs>
    <g id="Welcome" stroke="none" stroke-width="1" fill="none" fill-rule="evenodd" sketch:type="MSPage">
        <g id="Desktop-HD" sketch:type="MSArtboardGroup" transform="translate(-586.000000, -633.000000)" fill="#E1E1E1">
            <g id="Group" sketch:type="MSLayerGroup" transform="translate(237.000000, 71.000000)">
                <g transform="translate(349.000000, 558.000000)" id="Mail" sketch:type="MSShapeGroup">
                    <path d="M2.625,4 L25.375,4 C26.8625,4 28,5.1375 28,6.625 L28,22.375 C28,23.8625 26.8625,25 25.375,25 L2.625,25 C1.1375,25 0,23.8625 0,22.375 L0,6.625 C0,5.1375 1.1375,4 2.625,4 Z M14,18 L1.75,6.8 L2.8875,5.6625 L14,15.9875 L25.1125,5.6625 L26.25,6.8 L14,18 Z M18.440202,16.4301515 L25.3698485,23.359798 L26.359798,22.3698485 L19.4301515,15.440202 L18.440202,16.4301515 Z M9.55979797,16.4301515 L2.63015152,23.359798 L1.64020203,22.3698485 L8.56984848,15.440202 L9.55979797,16.4301515 Z"></path>
                </g>
            </g>
        </g>
    </g>
</svg>