<?xml version="1.0" encoding="UTF-8" standalone="no"?>
<svg width="29px" height="23px" viewBox="0 0 29 23" version="1.1" xmlns="http://www.w3.org/2000/svg" xmlns:xlink="http://www.w3.org/1999/xlink" xmlns:sketch="http://www.bohemiancoding.com/sketch/ns">
    <!-- Generator: Sketch 3.0.4 (8053) - http://www.bohemiancoding.com/sketch -->
    <title>Twitter</title>
    <desc>Created with Sketch.</desc>
    <defs></defs>
    <g id="Welcome" stroke="none" stroke-width="1" fill="none" fill-rule="evenodd" sketch:type="MSPage">
        <g id="Desktop-HD" sketch:type="MSArtboardGroup" transform="translate(-664.000000, -631.000000)" fill="#E1E1E1">
            <g id="Group" sketch:type="MSLayerGroup" transform="translate(237.000000, 71.000000)">
                <g transform="translate(349.000000, 558.000000)" id="Twitter" sketch:type="MSShapeGroup">
                    <path d="M87.1203775,25 C83.7604338,25 80.6330078,24.0388112 78,22.3913844 C78.4654596,22.4450081 78.939087,22.472441 79.4192911,22.472441 C82.2067449,22.472441 84.7721826,21.5441718 86.8084092,19.9869114 C84.2048904,19.9400166 82.0076411,18.2613265 81.2505798,15.9544734 C81.6137825,16.0222794 81.9865321,16.0586152 82.3698892,16.0586152 C82.9125718,16.0586152 83.4381762,15.9877036 83.9374739,15.8549901 C81.2155748,15.321652 79.1648158,12.97484 79.1648158,10.1615642 C79.1648158,10.1371333 79.1648158,10.1128059 79.1652401,10.0885821 C79.9674897,10.5234722 80.8848312,10.7846546 81.8601961,10.8147791 C80.2637587,9.77356894 79.2132924,7.99632727 79.2132924,5.9819199 C79.2132924,4.91783165 79.5066974,3.92041066 80.0188302,3.06284601 C82.9533048,6.57571407 87.337302,8.88732908 92.2821208,9.12946376 C92.1807125,8.7045117 92.127993,8.26134001 92.127993,7.80626345 C92.127993,4.59971284 94.7919748,2 98.0778778,2 C99.7890888,2 101.335352,2.70518233 102.420718,3.8336604 C103.775939,3.57320257 105.04927,3.0899684 106.198811,2.4246415 C105.754567,3.78045081 104.811237,4.91834925 103.582776,5.63698926 C104.786309,5.49661533 105.932986,5.18450072 107,4.72269532 C106.202312,5.88709503 105.193533,6.90977505 104.031157,7.72841595 C104.042613,7.977383 104.048341,8.22779933 104.048341,8.47956143 C104.048341,16.1524048 98.0639819,25 87.1203775,25"></path>
                </g>
            </g>
        </g>
    </g>
</svg>